<?xml version="1.0" encoding="UTF-8" standalone="no"?>
<!-- Created with Inkscape (http://www.inkscape.org/) -->

<svg
   width="210mm"
   height="297mm"
   viewBox="0 0 210 297"
   version="1.1"
   id="svg5"
   inkscape:version="1.1 (ce6663b3b7, 2021-05-25)"
   sodipodi:docname="character.svg"
   inkscape:export-filename="/home/jchad/projects/chronodrifter/Assets/character.png"
   inkscape:export-xdpi="65.023865"
   inkscape:export-ydpi="65.023865"
   xmlns:inkscape="http://www.inkscape.org/namespaces/inkscape"
   xmlns:sodipodi="http://sodipodi.sourceforge.net/DTD/sodipodi-0.dtd"
   xmlns="http://www.w3.org/2000/svg"
   xmlns:svg="http://www.w3.org/2000/svg">
  <sodipodi:namedview
     id="namedview7"
     pagecolor="#ffffff"
     bordercolor="#666666"
     borderopacity="1.0"
     inkscape:pageshadow="2"
     inkscape:pageopacity="0.0"
     inkscape:pagecheckerboard="0"
     inkscape:document-units="mm"
     showgrid="false"
     inkscape:zoom="1.1806935"
     inkscape:cx="144.83014"
     inkscape:cy="268.0628"
     inkscape:window-width="1864"
     inkscape:window-height="1032"
     inkscape:window-x="56"
     inkscape:window-y="27"
     inkscape:window-maximized="1"
     inkscape:current-layer="layer1" />
  <defs
     id="defs2" />
  <g
     inkscape:label="Layer 1"
     inkscape:groupmode="layer"
     id="layer1">
    <path
       id="path93"
       style="fill:#000000;fill-rule:evenodd;stroke-width:0.999999"
       d="M 188.97656 0 A 188.97638 188.97638 0 0 0 0 188.97656 L 377.95312 188.97656 A 188.97638 188.97638 0 0 0 188.97656 0 z "
       transform="scale(0.26458333)" />
    <path
       id="path93-3"
       style="fill:#00ccff;fill-rule:evenodd;stroke-width:0.949996"
       d="M 188.97656 9.4492188 A 179.52756 179.52756 0 0 0 9.4492188 188.97656 L 368.50391 188.97656 A 179.52756 179.52756 0 0 0 188.97656 9.4492188 z "
       transform="scale(0.26458333)" />
    <path
       id="rect495"
       style="fill:#000000;stroke-width:0.802382"
       d="M 0 188.97656 L 0 245.66992 L 170.07812 245.66992 A 18.897638 18.897638 0 0 1 188.97656 226.77148 A 18.897638 18.897638 0 0 1 207.87305 245.66992 L 377.95312 245.66992 L 377.95312 188.97656 L 0 188.97656 z "
       transform="scale(0.26458333)" />
    <path
       id="rect497"
       style="fill:#00ccff;stroke-width:0.270347"
       d="M 2.5001058,49.558191 V 65.000166 H 44.999835 a 5,5.1472844 0 0 1 5.000213,-5.147503 5,5.1472844 0 0 1 4.999696,5.147503 H 97.499992 V 49.558191 Z" />
    <rect
       style="fill:#000000;stroke-width:0.249403"
       id="rect619"
       width="45"
       height="35"
       x="0"
       y="65.000046" />
    <rect
       style="fill:#000000;stroke-width:0.203063"
       id="rect723"
       width="2.5"
       height="15"
       x="45"
       y="85" />
    <rect
       style="fill:#00ccff;stroke-width:0.294307"
       id="rect827"
       width="40"
       height="33.269348"
       x="2.5001059"
       y="64.230698" />
    <rect
       style="fill:#00ccff;stroke-width:0.340373"
       id="rect953"
       width="2.9812691"
       height="10"
       x="42.018837"
       y="87.5" />
    <rect
       style="fill:#000000;stroke-width:0.249403"
       id="rect619-7"
       width="45"
       height="35"
       x="-100.00021"
       y="65.000046"
       transform="scale(-1,1)" />
    <rect
       style="fill:#000000;stroke-width:0.203063"
       id="rect723-5"
       width="2.5"
       height="15"
       x="-55.00021"
       y="85"
       transform="scale(-1,1)" />
    <rect
       style="fill:#00ccff;stroke-width:0.293491"
       id="rect827-3"
       width="40"
       height="33.085194"
       x="-97.500107"
       y="64.414848"
       transform="scale(-1,1)" />
    <rect
       style="fill:#00ccff;stroke-width:0.340386"
       id="rect953-5"
       width="2.981503"
       height="10"
       x="-57.981606"
       y="87.5"
       transform="scale(-1,1)" />
    <path
       id="path1182"
       style="fill:#000000;stroke-width:0.934919"
       d="M 188.97656 217.32227 A 28.346457 28.346457 0 0 0 160.63086 245.66992 L 170.07812 245.66992 A 18.897638 18.897638 0 0 1 188.97656 226.77148 A 18.897638 18.897638 0 0 1 207.87305 245.66992 L 217.32227 245.66992 A 28.346457 28.346457 0 0 0 188.97656 217.32227 z "
       transform="scale(0.26458333)" />
    <ellipse
       style="fill:#000000;stroke-width:0.291303"
       id="path1637"
       cx="35"
       cy="32.5"
       rx="5"
       ry="7.5" />
    <ellipse
       style="fill:#000000;stroke-width:0.291303"
       id="path1637-9"
       cx="65"
       cy="32.5"
       rx="5"
       ry="7.5" />
  </g>
</svg>
